<?xml version="1.0" encoding="UTF-8"?>
<svg width="18px" height="18px" viewBox="0 0 18 18" version="1.1" xmlns="http://www.w3.org/2000/svg" xmlns:xlink="http://www.w3.org/1999/xlink">
    <!-- Generator: Sketch 55.2 (78181) - https://sketchapp.com -->
    <title>instagram</title>
    <desc>Created with Sketch.</desc>
    <g id="Page-1" stroke="none" stroke-width="1" fill="none" fill-rule="evenodd">
        <g id="Main-page-Copy" transform="translate(-1454.000000, -120.000000)" fill="#FF3C8C" fill-rule="nonzero">
            <g id="instagram" transform="translate(1454.000000, 120.000000)">
                <g id="Group_8">
                    <g id="Group_7">
                        <path d="M11.8388571,0 L5.38114286,0 C2.40941577,0.000473242638 0.000473242638,2.40941577 0,5.38114286 L0,11.8388571 C0.000473242638,14.8105842 2.40941577,17.2195268 5.38114286,17.22 L11.8388571,17.22 C14.8105842,17.2195268 17.2195268,14.8105842 17.22,11.8388571 L17.22,5.38114286 C17.2195268,2.40941577 14.8105842,0.000473242638 11.8388571,0 Z M15.606,11.8388571 C15.6036382,13.9184136 13.9184136,15.6036382 11.8388571,15.606 L5.38114286,15.606 C3.30158638,15.6036382 1.61636179,13.9184136 1.614,11.8388571 L1.614,5.38114286 C1.61636179,3.30158638 3.30158638,1.61636179 5.38114286,1.614 L11.8388571,1.614 C13.9184136,1.61636179 15.6036382,3.30158638 15.606,5.38114286 L15.606,11.8388571 Z" id="Path_6"></path>
                    </g>
                </g>
                <g id="Group_10" transform="translate(4.000000, 4.000000)">
                    <g id="Group_9">
                        <path d="M4.60890909,0.5 C2.33962126,0.5 0.5,2.33962126 0.5,4.60890909 C0.5,6.87819692 2.33962126,8.71781818 4.60890909,8.71781818 C6.87819692,8.71781818 8.71781818,6.87819692 8.71781818,4.60890909 C8.71736648,2.33980839 6.87800979,0.500451697 4.60890909,0.5 Z M4.60890909,7.17718182 C3.19049123,7.17718182 2.04063636,6.02732695 2.04063636,4.60890909 C2.04063636,3.19049123 3.19049123,2.04063636 4.60890909,2.04063636 C6.02732695,2.04063636 7.17718182,3.19049123 7.17718182,4.60890909 C7.17537874,6.02657942 6.02657942,7.17537874 4.60890909,7.17718182 Z" id="Path_7"></path>
                    </g>
                </g>
                <g id="Group_12" transform="translate(13.000000, 3.000000)">
                    <g id="Group_11">
                        <circle id="Ellipse_6" cx="0.669" cy="0.669" r="1"></circle>
                    </g>
                </g>
            </g>
        </g>
    </g>
</svg>