<svg width="42" height="42" viewBox="0 0 42 42" fill="none" xmlns="http://www.w3.org/2000/svg">
<path fill-rule="evenodd" clip-rule="evenodd" d="M8.96963 19.2217C16.6607 15.8709 21.7892 13.6618 24.3553 12.5945C31.682 9.54704 33.2044 9.01767 34.1967 9.00019C34.415 8.99634 34.903 9.05043 35.2191 9.30692C35.486 9.52349 35.5594 9.81605 35.5945 10.0214C35.6297 10.2267 35.6734 10.6945 35.6386 11.06C35.2416 15.2317 33.5236 25.3553 32.6496 30.0276C32.2798 32.0047 31.5516 32.6676 30.8466 32.7324C29.3146 32.8734 28.1512 31.7199 26.6673 30.7472C24.3453 29.2251 23.0335 28.2776 20.7796 26.7923C18.1748 25.0758 19.8634 24.1324 21.3478 22.5906C21.7363 22.1871 28.4867 16.0471 28.6173 15.4901C28.6337 15.4204 28.6489 15.1608 28.4946 15.0237C28.3403 14.8866 28.1127 14.9334 27.9484 14.9707C27.7155 15.0236 24.006 17.4754 16.8201 22.3261C15.7672 23.0491 14.8135 23.4014 13.959 23.3829C13.017 23.3626 11.205 22.8503 9.85794 22.4124C8.20574 21.8754 6.8926 21.5914 7.00694 20.6793C7.0665 20.2042 7.72073 19.7184 8.96963 19.2217Z" fill="url(#paint0_linear_202_243)"/>
<defs>
<linearGradient id="paint0_linear_202_243" x1="21.3257" y1="9" x2="21.3257" y2="32.5681" gradientUnits="userSpaceOnUse">
<stop stop-color="#2CA4E0"/>
<stop offset="1" stop-color="#0D83BF"/>
</linearGradient>
</defs>
</svg>
